<svg xmlns="http://www.w3.org/2000/svg" viewBox="0 0 32 32" role="img" aria-label="Spectra Desk ghost">
  <defs>
    <linearGradient id="ghost-body" x1="16" y1="2" x2="16" y2="28" gradientUnits="userSpaceOnUse">
      <stop offset="0%" stop-color="#ddd6fe"/>
      <stop offset="40%" stop-color="#a78bfa"/>
      <stop offset="100%" stop-color="#7c3aed"/>
    </linearGradient>
    <filter id="ghost-glow" x="-20%" y="-20%" width="140%" height="140%">
      <feGaussianBlur stdDeviation=".6" result="blur"/>
      <feMerge>
        <feMergeNode in="blur"/>
        <feMergeNode in="SourceGraphic"/>
      </feMerge>
    </filter>
  </defs>
  <path fill="url(#ghost-body)" filter="url(#ghost-glow)" d="M16 3C9.4 3 5 8.2 5 14.5V26c0 0 2.4-2.2 4.4 0 2 2.2 3.6-1.8 6.6 0 2-2.2 4.4 0 4.4 0V14.5C20 8.2 15.6 3 16 3Z"/>
  <ellipse cx="12" cy="14.5" rx="2.1" ry="2.6" fill="#0b1020" opacity=".88"/>
  <ellipse cx="20" cy="14.5" rx="2.1" ry="2.6" fill="#0b1020" opacity=".88"/>
  <circle cx="12.6" cy="13.4" r=".8" fill="#22d3ee"/>
  <circle cx="20.6" cy="13.4" r=".8" fill="#22d3ee"/>
  <path d="M13.2 18.2c1 .9 2.1 1.4 2.8 1.4.7 0 1.8-.5 2.8-1.4" fill="none" stroke="#5b21b6" stroke-width=".9" stroke-linecap="round" opacity=".55"/>
</svg>